<?xml version="1.0" encoding="utf-8"?>
<!-- Generator: Adobe Illustrator 18.0.0, SVG Export Plug-In . SVG Version: 6.00 Build 0)  -->
<!DOCTYPE svg PUBLIC "-//W3C//DTD SVG 1.1//EN" "http://www.w3.org/Graphics/SVG/1.1/DTD/svg11.dtd">
<svg version="1.1" id="Layer_1" xmlns="http://www.w3.org/2000/svg" xmlns:xlink="http://www.w3.org/1999/xlink" x="0px" y="0px"
	 viewBox="0 0 64 64" enable-background="new 0 0 64 64" xml:space="preserve">
<path fill="#484848" d="M26.2,2.9c1.7,0,3.1,1.4,3.2,3c0,0.1,0,0.2,0,0.3l0,19.4l5-5.7c0.2-0.3,0.8-0.7,1.6-0.7c1.2,0,2.1,1,2.1,2.1
	v1.6v8l5.1-6.1c0.2-0.3,0.8-0.8,1.6-0.8c1.1,0,2.1,0.9,2.1,2l0,0.1l0,0.1l-0.6,9.6l5.7-7.7c0.4-0.6,1-0.9,1.7-0.9
	c1.2,0,2.1,1,2.1,2.1l0,2.9V51l-8.4,10.2H25.8L9.6,35l-0.2-0.3l-0.3-0.3C8.4,33.7,8,32.8,8,31.8c0-2,1.6-3.6,3.6-3.6
	c0.9,0,1.8,0.4,2.5,1l3.9,4.7l5.1,6.1v-8V6.5V6.4l0-0.1c0-0.1,0-0.2,0-0.3C23.1,4.2,24.5,2.9,26.2,2.9 M26.2,0c-3.3,0-6,2.7-6,6
	c0,0.2,0,0.3,0,0.4v25.7l-3.9-4.8c-1.2-1.2-2.8-2-4.6-2c-3.6,0-6.4,2.9-6.4,6.4c0,1.8,0.8,3.5,2,4.7l17,27.5h24.7l9.9-12V29.3h0
	c0-2.8-2.2-5-5-5c-1.6,0-3.1,0.8-4,2c0-0.1,0-0.2,0-0.3c0-2.8-2.2-5-5-5c-1.6,0-2.9,0.7-3.8,1.8v-1.6c0-2.8-2.2-5-5-5
	c-1.5,0-2.8,0.7-3.8,1.7V6.4h0c0-0.1,0-0.3,0-0.4C32.2,2.7,29.5,0,26.2,0L26.2,0z"/>
</svg>
